<?xml version="1.0" encoding="utf-8"?>
<!-- Generator: Adobe Illustrator 27.5.0, SVG Export Plug-In . SVG Version: 6.00 Build 0)  -->
<svg version="1.1" xmlns="http://www.w3.org/2000/svg" xmlns:xlink="http://www.w3.org/1999/xlink" x="0px" y="0px"
	 viewBox="0 0 500 500" style="enable-background:new 0 0 500 500;" xml:space="preserve">
<g id="Floor">
	<path id="Floor_00000018954412494421822190000003839507798105980036_" style="fill:#FAFAFA;" d="M80.342,246.791
		c-93.654,54.071-93.652,141.739,0.005,195.81c93.657,54.072,245.502,54.072,339.156,0c93.654-54.071,93.652-141.738-0.005-195.81
		C325.842,192.719,173.997,192.719,80.342,246.791z"/>
</g>
<g id="Plants">
	<g id="Plants_00000043454354151107944410000016816325024237621141_">
		<g id="XMLID_348_">
			<path style="fill:#E0E0E0;" d="M456.715,202.457c-5.6,1.21-14.17,8.72-17.81,23.36c-3.2,12.88-2.924,23.608-1.28,32.683
				c1.132,0.818,2.246,1.642,3.34,2.477c0.29,0.22,0.58,0.44,0.86,0.65c1.15,0.89,2.28,1.78,3.39,2.67c0.27,0.22,0.54,0.44,0.8,0.66
				c0.24-2.89,0.64-6.47,1.31-10.82c0.24-1.5,0.5-2.93,0.77-4.29c4.13-20.04,13.15-24.69,17.3-33.51
				C470.065,206.447,463.015,201.087,456.715,202.457z"/>
			<g id="XMLID_406_">
				<path style="fill:#FFFFFF;" d="M458.205,208.157c-8.75,7.95-18.63,28.99-16.38,53.47c-0.28-0.21-0.57-0.43-0.86-0.65
					c-2-24.45,7.92-45.42,16.69-53.41c0.17-0.15,0.42-0.14,0.57,0.03C458.375,207.757,458.355,208.017,458.205,208.157z"/>
			</g>
		</g>
		<g id="XMLID_342_">
			<path style="fill:#F0F0F0;" d="M458.693,253.532c-2.28,3.016-5.591,7.43-7.988,15.4c-0.733-0.645-1.477-1.287-2.23-1.924
				c-0.25-0.22-0.5-0.43-0.76-0.64c-0.56-0.48-1.12-0.95-1.7-1.41c-0.26-0.22-0.53-0.44-0.8-0.66
				c0.25-5.26,1.576-12.737,3.126-17.017c1.99-5.43,5.135-11.458,7.891-14.381c6.831-7.243,14.768-7.923,17.568-2.043
				C476.59,236.737,465.91,243.986,458.693,253.532z"/>
			<g id="XMLID_429_">
				<path style="fill:#FFFFFF;" d="M465.475,235.647c-5.67,3.44-15.3,18.49-17,31.36c-0.25-0.22-0.5-0.43-0.76-0.64
					c1.91-13.09,11.49-27.85,17.35-31.41c0.19-0.12,0.44-0.05,0.55,0.13C465.735,235.277,465.675,235.527,465.475,235.647z"/>
			</g>
		</g>
	</g>
	<g id="Plants_1_">
		<g id="XMLID_1047_">
			<g id="XMLID_00000016047532555728134570000012214407795756843176_">
				<path style="fill:#F0F0F0;" d="M69.855,253.237c-1.28,0.84-2.55,1.69-3.79,2.54c-1.56,1.08-3.09,2.16-4.58,3.25
					c0-12.17-2.67-22.65-5.93-30.48c-1.71-4.07-3.57-7.43-5.31-9.93c-9.38-13.48-7.74-20.07-2.07-22.02
					c5.67-1.96,20.57,6.56,22.99,29.21C72.235,235.837,70.965,246.577,69.855,253.237z"/>
			</g>
			<g id="XMLID_1048_">
				<path id="XMLID_1049_" style="fill:#FFFFFF;" d="M64.332,255.194c-0.023-0.001-0.046-0.004-0.069-0.008
					c-0.272-0.052-0.451-0.314-0.399-0.586c3.967-20.884-3.328-44.352-12.363-54.117c-0.188-0.203-0.176-0.521,0.028-0.709
					c0.204-0.186,0.521-0.176,0.709,0.028c9.199,9.943,16.637,33.794,12.611,54.986C64.803,255.035,64.578,255.206,64.332,255.194z"
					/>
			</g>
		</g>
		<g id="XMLID_00000117644371881229017340000007948305450780853930_">
			<g id="XMLID_1044_">
				<path style="fill:#E0E0E0;" d="M66.835,252.287c-0.17,1.27-0.38,2.34-0.77,3.49c-1.56,1.08-3.09,2.16-4.58,3.25
					c-2.48,1.81-4.86,3.65-7.16,5.52c-0.33,0.26-0.66,0.53-0.98,0.8c-3.63,2.98-7.02,6.03-10.19,9.14
					c-0.01,0.01-0.02,0.01-0.02,0.01c-0.01,0-0.02,0.01-0.02,0.01c-1.08,0.55-3.95-1.92-4.75-2.51c-1.38-1.03-2.46-2.44-3.15-4
					c-0.8-1.82-0.92-3.74-0.55-5.69c0.2-1.01,0.54-1.99,0.87-2.96c0.33-0.96,0.66-1.91,0.98-2.87c0.33-0.95,0.66-1.92,0.58-2.92
					c-0.16-2-1.85-3.49-3.4-4.77c-1.71-1.42-3.47-3.27-3.34-5.67c0.1-1.85,1.14-3.52,2.36-4.92c1.22-1.39,2.65-2.61,3.76-4.09
					c0.8-1.06,1.45-2.33,1.4-3.66c-0.04-0.83-0.34-1.63-0.7-2.37c-0.76-1.61-1.81-3.09-2.31-4.8c-0.5-1.71-0.31-3.79,1.06-4.93
					c1.12-0.93,2.73-0.98,4.18-0.81c1.34,0.15,2.62,0.83,3.77,1.54c3.7,2.31,5.65,6.93,9.6,8.76c0.67,0.31,1.37,0.53,2.08,0.71
					c0.91,0.25,1.85,0.44,2.75,0.73c1.61,0.52,3.22,1.43,3.9,2.97c1.33,3.04-1.6,6.55-0.72,9.75c0.55,2.01,2.05,3.19,3.36,4.64
					c0.33,0.35,0.64,0.72,0.92,1.12c0.2,0.27,0.38,0.55,0.54,0.85C66.915,249.737,67.005,251.017,66.835,252.287z"/>
			</g>
			<g id="XMLID_00000177475026710021261000000015487455719596892341_">
				<path style="fill:#FFFFFF;" d="M54.325,264.547c-0.33,0.26-0.66,0.53-0.98,0.8c0.66-17.94-6.63-37.19-12.43-43.2
					c-0.18-0.19-0.18-0.49,0.01-0.67c0.19-0.18,0.49-0.17,0.67,0.01C47.425,227.517,54.725,246.597,54.325,264.547z"/>
			</g>
			<g id="XMLID_00000090980015878294297970000006425918884096267949_">
				<path id="XMLID_00000167380445271011929420000011967695731909159074_" style="fill:#FFFFFF;" d="M51.729,245.882
					c-0.046-0.002-0.093-0.011-0.139-0.028c-5.953-2.175-13.474-2.884-13.549-2.891c-0.262-0.024-0.453-0.256-0.43-0.516
					c0.024-0.261,0.233-0.457,0.517-0.43c0.077,0.008,7.717,0.728,13.788,2.946c0.246,0.09,0.373,0.362,0.283,0.608
					C52.126,245.771,51.932,245.892,51.729,245.882z"/>
			</g>
		</g>
	</g>
</g>
<g id="Shadows">
	<path id="Shadow_88_" style="fill:#E0E0E0;" d="M234.18,251.072L96.039,330.858c-2.224,1.284-2.224,3.366,0,4.649l189.838,109.301
		c2.224,1.285,5.829,1.285,8.052,0l138.142-79.788c2.224-1.284,2.224-3.365,0-4.649L242.233,251.072
		C240.009,249.788,236.404,249.788,234.18,251.072z"/>
	<path id="Shadow_00000065787087577752630910000006784016675628386495_" style="fill:#E0E0E0;" d="M161.693,339.63
		c25.04,14.621,25.04,38.325-0.001,52.945c-25.042,14.621-65.643,14.621-90.683,0c-25.041-14.62-25.041-38.324,0.001-52.944
		C96.051,325.009,136.651,325.009,161.693,339.63z"/>
</g>
<g id="Lines">
	<path id="Line_00000110454751516599682770000013164829713045601416_" style="fill:#BA68C8;" d="M48.274,395.838
		c18.602,13.642,38.27,16.578,59.373,17.557c13.986,0.649,27.983-0.305,41.885-1.71c6.202-0.627,12.394-1.363,18.582-2.129
		c6.674-0.826,13.342-1.69,20.082-1.48c4.921,0.153,10.169,0.68,14.77,2.93c4.452,2.177,7.442,6.704,5.703,11.757
		c-0.753,2.19-2.215,4.065-3.808,5.746c-5.265,5.553-11.764,9.353-15.518,16.34c-1.288,2.399-2.304,6.267-0.93,8.618
		c3.356,5.744,14.942,5.734,20.266,5.519c14.673-0.593,23.529-2.877,33.426-6.512c15.213-5.586,27.246-13.966,38.214-22.462
		c3.257-2.523,6.715-4.817,9.979-7.378c0.553-0.434,0.817,0.867,0.421,1.217c-5.252,4.629-11.075,8.457-16.411,12.92
		c-4.957,4.145-10.389,7.703-16.103,10.714c-11.399,6.007-18.283,9.297-31.889,12.175c-3.387,0.716-11.45,1.763-14.903,2.008
		c-5.868,0.417-11.54,0.46-17.321-0.479c-3.463-0.563-8.166-2.665-9.488-6.504c-1.494-4.339-0.026-8.608,2.351-12.369
		c2.372-3.752,5.256-6.458,8.598-9.379c2.242-1.96,5.917-5.057,7.674-7.461c6.653-9.102-3.015-13.189-10.801-14.069
		c-5.671-0.641-12.568-0.393-18.201,0.297c-5.963,0.73-12.31,1.796-18.279,2.466c-14.208,1.594-26.82,2.647-41.129,2.486
		c-6.734-0.076-15.267-0.637-22.142-1.392c-22.069-2.425-39.929-11.359-47.409-20.376c-0.831-1.001-2.102-3.06-1.457-3.394
		C44.719,392.753,47.021,394.919,48.274,395.838z"/>
	<path id="Line" style="fill:#455A64;" d="M431.921,390.387c-4.596,0.302-8.747,1.623-11.693,3.674
		c-3.003,2.092-4.677,4.783-5.756,7.395c-2.101,5.085-1.958,10.414-4.553,15.439c-2.673,5.175-9.459,9.193-18.821,10.18
		c-3.971,0.419-8.025,0.118-11.716-0.729c5.198-3.869,8.512-8.666,6.13-13.56c-1.206-2.479-4.167-5.466-8.851-6.123
		c-4.976-0.699-10.2,2.053-12.712,4.261c-5.919,5.203-0.717,11.917,7.176,15.333c0.738,0.32,1.506,0.605,2.285,0.874
		c-5.096,3.087-11.542,5.49-18.445,6.916c-8.144,1.682-17.291,2.072-25.528,0.363c-10.148-2.106-17.529-6.752-23.597-11.72
		c-1.528-1.251-3.083-2.476-4.701-3.688c-0.617-0.462-3.119-0.363-2.558,0.411c4.468,6.179,12.684,12.044,22.775,15.431
		c8.543,2.867,18.657,3.424,28.217,2.258c9.278-1.131,18.014-3.884,24.897-7.634c0.791-0.431,1.562-0.887,2.316-1.357
		c7.309,1.751,15.705,1.514,22.888-0.733c8.942-2.797,13.53-7.814,15.341-13.422c1.747-5.411,1.41-11.138,5.249-16.272
		c2.299-3.074,6.427-5.523,12.377-5.942c5.19-0.366,9.861,0.83,13.144,3.149c1.717,1.213,2.885,2.694,3.465,4.221
		c0.066,0.175,0.818,0.402,0.815,0.112C450.018,393.815,440.985,389.792,431.921,390.387z M367.624,420.375
		c-2.3-2.465-3.322-5.473-0.999-8.056c1.1-1.225,2.799-2.242,4.751-3.025c0.853-0.342,1.912-0.778,2.985-0.806
		c1.137-0.029,2.247,0.429,3.049,0.847c3.486,1.815,5.009,4.68,4.864,7.333c-0.165,3.016-2.395,5.796-5.482,8.183
		c-0.242,0.187-0.514,0.362-0.765,0.545C372.531,424.189,369.567,422.458,367.624,420.375z"/>
</g>
<g id="Notebook_00000018925176821527669840000013736649958379491488_">
	<g id="Notebook">
		<g id="XMLID_7537_">
			<path id="XMLID_7543_" style="fill:#263238;" d="M242.583,252.454l-133.637,70.362l-2.747,4.32v3.48
				c0,1.737,1.002,3.311,2.747,4.319L285.07,436.624c1.271,0.733,2.899,1.136,4.585,1.136c1.686,0,3.314-0.403,4.585-1.136
				l130.654-75.432v-3.48L242.583,252.454z"/>
			<path id="XMLID_7541_" style="fill:#BA68C8;" d="M289.655,434.282c-1.686,0-3.314-0.405-4.585-1.137L108.946,331.456
				c-1.745-1.008-2.747-2.583-2.747-4.32c0-1.736,1.002-3.311,2.747-4.32l127.757-73.759l188.191,108.656L294.24,433.144
				C292.969,433.877,291.341,434.282,289.655,434.282z"/>
		</g>
		<g id="XMLID_7526_">
			<path id="XMLID_7535_" style="fill:#EBEBEB;" d="M236.701,238.848L110.395,311.77l-1.298,1.812v13.554l0,0
				c0,0.655,0.433,1.31,1.298,1.811L286.52,430.634c1.73,1.001,4.539,1.001,6.271,0L419.1,357.713v-13.556L236.701,238.848z"/>
			<path id="XMLID_7532_" style="fill:#F0F0F0;" d="M419.106,344.161l-1.579,0.913l-20.554,11.863l-3.824,2.217L292.798,417.08
				c-1.739,0.999-4.549,0.999-6.273,0L110.39,315.387c-1.723-1.001-1.723-2.623,0-3.623l1.681-0.97l124.63-71.947L417.542,343.25
				l0.376,0.232L419.106,344.161z"/>
			<path id="XMLID_7530_" style="fill:#E0E0E0;" d="M289.654,417.834v13.553c-1.13,0-2.274-0.246-3.128-0.753L110.39,328.941
				c-0.854-0.492-1.289-1.144-1.289-1.811v-13.555c0,0.652,0.434,1.305,1.289,1.812L286.526,417.08
				C287.38,417.586,288.524,417.834,289.654,417.834z"/>
		</g>
		<path id="XMLID_7524_" style="fill:#FFFFFF;" d="M419.106,342.352l-22.742,13.124l-3.564,2.056L292.798,415.27
			c-1.739,0.999-4.549,0.999-6.273,0L128.8,324.207c-1.419-0.781-2.737-1.549-3.969-2.289c-6.417-3.909-10.283-7.401-12.76-11.124
			c-0.102-0.159-0.204-0.304-0.306-0.464c-0.202-0.303-0.332-0.622-0.391-0.942c-0.288-1.389,0.638-2.721,2.203-3.186
			c3.056-0.912,7.676-2.535,11.892-4.954c0.057-0.028,0.101-0.057,0.159-0.086l111.071-64.125L419.106,342.352z"/>
		<g id="XMLID_516_">
			<g id="XMLID_7512_">
				<path id="XMLID_7522_" style="opacity:0.1;" d="M395.565,340.762c-1.61,0.936-1.61,2.457-0.002,3.395
					c1.61,0.938,4.232,0.938,5.856,0c1.625-0.938,1.625-2.459,0-3.397C399.795,339.823,397.173,339.823,395.565,340.762z"/>
				<path id="XMLID_7518_" style="fill:#263238;" d="M414.384,329.779c-2.23-1.289-5.026-1.086-7.881,0.551
					c-4.416,2.563-8.24,8.271-9.906,14.252c0.667,0.218,1.42,0.305,2.159,0.261c1.535-5.329,4.925-10.356,8.835-12.631
					c1.275-0.725,2.492-1.101,3.593-1.101c0.767,0,1.477,0.188,2.114,0.55c1.883,1.086,2.97,3.736,2.97,7.256
					c0,0.58-0.029,1.16-0.101,1.739l2.057,1.188c0.145-0.985,0.218-1.969,0.218-2.926
					C418.44,334.603,416.962,331.27,414.384,329.779z"/>
				<path id="XMLID_7514_" style="fill:#263238;" d="M418.02,342.975c-0.014,0.158-0.059,0.332-0.102,0.507l-0.376-0.232
					L418.02,342.975z"/>
			</g>
			<g id="XMLID_7495_">
				<path id="XMLID_7509_" style="opacity:0.1;" d="M377.915,330.568c-1.608,0.938-1.608,2.46,0,3.396
					c1.609,0.939,4.23,0.938,5.856,0c1.626-0.939,1.626-2.458,0-3.397C382.147,329.629,379.524,329.629,377.915,330.568z"/>
				<path id="XMLID_7497_" style="fill:#263238;" d="M396.735,319.585c-2.231-1.289-5.027-1.087-7.881,0.55
					c-4.416,2.563-8.241,8.271-9.907,14.252c0.666,0.219,1.42,0.306,2.159,0.262c1.535-5.33,4.925-10.357,8.835-12.631
					c1.275-0.723,2.493-1.1,3.593-1.1c0.767,0,1.477,0.189,2.114,0.55c1.883,1.085,2.97,3.738,2.97,7.256
					c0,0.58-0.029,1.16-0.101,1.74l2.057,1.188c0.145-0.985,0.218-1.97,0.218-2.927
					C400.792,324.408,399.313,321.077,396.735,319.585z"/>
			</g>
			<g id="XMLID_7484_">
				<path id="XMLID_7492_" style="opacity:0.1;" d="M360.262,320.375c-1.61,0.937-1.61,2.458,0,3.396
					c1.609,0.938,4.231,0.938,5.855,0c1.626-0.939,1.626-2.459,0-3.397C364.493,319.437,361.871,319.437,360.262,320.375z"/>
				<path id="XMLID_7486_" style="fill:#263238;" d="M379.081,309.392c-2.23-1.289-5.027-1.085-7.879,0.55
					c-4.419,2.564-8.243,8.272-9.908,14.254c0.666,0.216,1.421,0.304,2.157,0.261c1.535-5.331,4.925-10.357,8.836-12.632
					c1.276-0.723,2.492-1.1,3.593-1.1c0.768,0,1.478,0.189,2.116,0.55c1.883,1.087,2.97,3.738,2.97,7.257
					c0,0.58-0.03,1.161-0.103,1.739l2.057,1.188c0.146-0.986,0.217-1.97,0.217-2.927
					C383.136,314.216,381.658,310.884,379.081,309.392z"/>
			</g>
			<g id="XMLID_7478_">
				<path id="XMLID_7482_" style="opacity:0.1;" d="M342.611,310.185c-1.61,0.939-1.61,2.46,0,3.399c1.609,0.938,4.23,0.938,5.856,0
					c1.625-0.939,1.625-2.459,0.001-3.399C346.841,309.248,344.22,309.248,342.611,310.185z"/>
				<path id="XMLID_7480_" style="fill:#263238;" d="M361.429,299.204c-2.229-1.289-5.025-1.085-7.879,0.551
					c-4.417,2.563-8.241,8.27-9.907,14.253c0.666,0.216,1.418,0.304,2.157,0.261c1.536-5.332,4.925-10.357,8.836-12.632
					c1.275-0.723,2.491-1.1,3.593-1.1c0.768,0,1.478,0.189,2.116,0.55c1.883,1.086,2.969,3.737,2.969,7.257
					c0,0.579-0.029,1.159-0.102,1.738l2.059,1.187c0.143-0.985,0.215-1.969,0.215-2.925
					C365.485,304.027,364.008,300.696,361.429,299.204z"/>
			</g>
			<g id="XMLID_7474_">
				<path id="XMLID_7477_" style="opacity:0.1;" d="M324.959,299.995c-1.609,0.938-1.61,2.458,0,3.397
					c1.609,0.938,4.231,0.938,5.855,0c1.625-0.939,1.625-2.46,0.001-3.397C329.19,299.057,326.569,299.057,324.959,299.995z"/>
				<path id="XMLID_7475_" style="fill:#263238;" d="M343.779,289.013c-2.231-1.29-5.026-1.087-7.88,0.55
					c-4.418,2.565-8.242,8.271-9.908,14.253c0.666,0.217,1.42,0.304,2.159,0.261c1.535-5.331,4.924-10.357,8.835-12.631
					c1.275-0.724,2.491-1.102,3.591-1.102c0.768,0,1.479,0.189,2.116,0.552c1.883,1.085,2.97,3.737,2.97,7.257
					c0,0.578-0.029,1.159-0.102,1.738l2.057,1.188c0.145-0.985,0.217-1.97,0.217-2.926
					C347.835,293.836,346.357,290.504,343.779,289.013z"/>
			</g>
			<g id="XMLID_7469_">
				<path id="XMLID_7473_" style="opacity:0.1;" d="M307.304,289.803c-1.61,0.937-1.61,2.458,0,3.396
					c1.608,0.939,4.231,0.938,5.855,0c1.624-0.939,1.624-2.459,0.001-3.398C311.535,288.864,308.912,288.864,307.304,289.803z"/>
				<path id="XMLID_7471_" style="fill:#263238;" d="M326.124,278.82c-2.231-1.288-5.026-1.085-7.88,0.552
					c-4.418,2.564-8.242,8.27-9.908,14.253c0.666,0.217,1.42,0.304,2.159,0.261c1.536-5.33,4.924-10.357,8.834-12.63
					c1.275-0.724,2.493-1.102,3.594-1.102c0.767,0,1.476,0.189,2.113,0.551c1.883,1.085,2.969,3.737,2.969,7.257
					c0,0.578-0.029,1.159-0.101,1.739l2.057,1.188c0.143-0.986,0.216-1.97,0.216-2.927
					C330.179,283.644,328.703,280.311,326.124,278.82z"/>
			</g>
			<g id="XMLID_7465_">
				<path id="XMLID_7468_" style="opacity:0.1;" d="M289.654,279.611c-1.608,0.939-1.608,2.46,0,3.397
					c1.61,0.938,4.231,0.938,5.857,0c1.624-0.938,1.624-2.459,0-3.397C293.885,278.675,291.263,278.675,289.654,279.611z"/>
				<path id="XMLID_7466_" style="fill:#263238;" d="M308.474,268.63c-2.23-1.289-5.025-1.087-7.88,0.55
					c-4.418,2.565-8.241,8.272-9.907,14.254c0.667,0.217,1.418,0.304,2.158,0.26c1.536-5.331,4.925-10.357,8.836-12.631
					c1.275-0.725,2.492-1.101,3.592-1.101c0.768,0,1.478,0.188,2.115,0.55c1.883,1.087,2.97,3.737,2.97,7.258
					c0,0.579-0.028,1.157-0.1,1.738l2.056,1.188c0.145-0.984,0.218-1.971,0.218-2.925
					C312.531,273.453,311.052,270.123,308.474,268.63z"/>
			</g>
			<g id="XMLID_7460_">
				<path id="XMLID_7464_" style="opacity:0.1;" d="M272,269.421c-1.61,0.938-1.61,2.459-0.001,3.397
					c1.61,0.938,4.233,0.937,5.857,0c1.624-0.938,1.624-2.459,0-3.399C276.231,268.482,273.608,268.482,272,269.421z"/>
				<path id="XMLID_7462_" style="fill:#263238;" d="M290.82,258.439c-2.231-1.289-5.026-1.087-7.88,0.55
					c-4.418,2.564-8.243,8.271-9.907,14.254c0.666,0.216,1.419,0.304,2.157,0.261c1.536-5.33,4.925-10.357,8.836-12.632
					c1.275-0.724,2.491-1.1,3.592-1.1c0.767,0,1.478,0.189,2.115,0.55c1.883,1.086,2.97,3.738,2.97,7.257
					c0,0.579-0.029,1.159-0.101,1.738l2.058,1.188c0.144-0.985,0.216-1.97,0.216-2.927
					C294.875,263.262,293.398,259.931,290.82,258.439z"/>
			</g>
			<g id="XMLID_7455_">
				<path id="XMLID_7459_" style="opacity:0.1;" d="M254.351,259.227c-1.61,0.938-1.61,2.459-0.001,3.397
					c1.609,0.938,4.232,0.938,5.856,0c1.624-0.939,1.626-2.46,0-3.397C258.582,258.289,255.96,258.289,254.351,259.227z"/>
				<path id="XMLID_7457_" style="fill:#263238;" d="M273.17,248.246c-2.23-1.289-5.026-1.087-7.878,0.55
					c-4.419,2.565-8.243,8.27-9.908,14.253c0.665,0.217,1.418,0.304,2.157,0.259c1.535-5.329,4.925-10.357,8.835-12.631
					c1.275-0.724,2.491-1.099,3.592-1.099c0.769,0,1.478,0.187,2.114,0.549c1.883,1.086,2.97,3.738,2.97,7.257
					c0,0.58-0.028,1.159-0.101,1.738l2.057,1.188c0.145-0.985,0.217-1.97,0.217-2.926
					C277.226,253.069,275.748,249.737,273.17,248.246z"/>
			</g>
			<g id="XMLID_7450_">
				<path id="XMLID_7454_" style="opacity:0.1;" d="M236.695,249.038c-1.609,0.938-1.609,2.46,0,3.396
					c1.61,0.939,4.232,0.938,5.857,0c1.625-0.938,1.625-2.458,0-3.397C240.927,248.1,238.305,248.1,236.695,249.038z"/>
				<path id="XMLID_7452_" style="fill:#263238;" d="M255.516,238.055c-2.231-1.29-5.026-1.087-7.879,0.55
					c-4.417,2.564-8.241,8.271-9.908,14.253c0.667,0.218,1.418,0.304,2.158,0.261c1.534-5.331,4.925-10.357,8.836-12.631
					c1.275-0.725,2.492-1.101,3.593-1.101c0.767,0,1.477,0.188,2.116,0.55c1.882,1.087,2.968,3.738,2.968,7.258
					c0,0.58-0.029,1.158-0.102,1.737l2.057,1.189c0.144-0.985,0.217-1.97,0.217-2.926
					C259.572,242.878,258.094,239.547,255.516,238.055z"/>
			</g>
		</g>
		<g>
			<g>
				<g>
					<path style="fill:#E0E0E0;" d="M288.431,408.731c-0.82,0-1.678-0.201-2.36-0.596l-10.706-6.182
						c-0.749-0.432-1.179-1.044-1.179-1.68c0-0.563,0.324-1.06,0.913-1.4l101.312-58.472c1.116-0.645,2.979-0.576,4.241,0.153
						l10.707,6.182c0.749,0.432,1.178,1.044,1.178,1.68c0,0.564-0.324,1.061-0.913,1.4l-101.311,58.472
						C289.8,408.585,289.128,408.731,288.431,408.731z M378.283,341.052c-0.503,0-0.979,0.098-1.326,0.297L275.645,399.82
						c-0.136,0.079-0.365,0.243-0.365,0.453c0,0.178,0.166,0.464,0.631,0.732l10.707,6.183c0.926,0.533,2.365,0.601,3.147,0.153
						l101.311-58.472c0.137-0.079,0.365-0.243,0.365-0.453c0-0.178-0.165-0.464-0.63-0.732l-10.707-6.182
						C379.59,341.205,378.915,341.052,378.283,341.052z"/>
				</g>
				<g>
					
						<rect x="273.015" y="373.867" transform="matrix(0.866 -0.5 0.5 0.866 -142.5333 216.9154)" style="fill:#E0E0E0;" width="120.933" height="1.094"/>
				</g>
			</g>
			<g>
				<g>
					<g>
						<path style="fill:#E0E0E0;" d="M265.659,395.583c-0.82,0-1.677-0.2-2.359-0.594l-139.368-80.466
							c-0.749-0.432-1.179-1.044-1.179-1.68c0-0.564,0.324-1.061,0.913-1.4l101.311-58.472c1.115-0.645,2.978-0.577,4.241,0.153
							l139.368,80.464c0.749,0.432,1.179,1.045,1.179,1.68c0,0.564-0.324,1.061-0.913,1.4l-101.311,58.473
							C267.028,395.438,266.357,395.583,265.659,395.583z M226.85,253.622c-0.504,0-0.98,0.097-1.326,0.297l-101.312,58.472
							c-0.137,0.079-0.365,0.243-0.365,0.453c0,0.178,0.166,0.464,0.631,0.732l139.368,80.466c0.926,0.532,2.366,0.604,3.147,0.152
							l101.312-58.472c0.136-0.079,0.365-0.243,0.365-0.452c0-0.179-0.166-0.464-0.631-0.733l-139.368-80.464
							C228.157,253.776,227.482,253.622,226.85,253.622z"/>
					</g>
					<g>
						
							<rect x="250.243" y="360.72" transform="matrix(0.866 -0.5 0.5 0.866 -139.0034 203.747)" style="fill:#E0E0E0;" width="120.934" height="1.094"/>
					</g>
					<g>
						
							<rect x="243.067" y="356.578" transform="matrix(0.866 -0.5 0.5 0.866 -137.8935 199.6043)" style="fill:#E0E0E0;" width="120.934" height="1.094"/>
					</g>
					<g>
						
							<rect x="235.892" y="352.435" transform="matrix(0.8661 -0.5 0.5 0.8661 -136.778 195.4472)" style="fill:#E0E0E0;" width="120.934" height="1.094"/>
					</g>
					<g>
						
							<rect x="228.716" y="348.292" transform="matrix(0.866 -0.5 0.5 0.866 -135.6731 191.3192)" style="fill:#E0E0E0;" width="120.934" height="1.094"/>
					</g>
					<g>
						
							<rect x="221.541" y="344.149" transform="matrix(0.8661 -0.4999 0.4999 0.8661 -134.5507 187.1434)" style="fill:#E0E0E0;" width="120.934" height="1.094"/>
					</g>
					<g>
						
							<rect x="214.365" y="340.006" transform="matrix(0.866 -0.5 0.5 0.866 -133.4532 183.0337)" style="fill:#E0E0E0;" width="120.934" height="1.094"/>
					</g>
					<g>
						
							<rect x="207.189" y="335.863" transform="matrix(0.866 -0.5 0.5 0.866 -132.3503 178.9092)" style="fill:#E0E0E0;" width="120.933" height="1.094"/>
					</g>
					<g>
						
							<rect x="200.013" y="331.72" transform="matrix(0.866 -0.5 0.5 0.866 -131.2329 174.7481)" style="fill:#E0E0E0;" width="120.934" height="1.094"/>
					</g>
					<g>
						
							<rect x="192.839" y="327.578" transform="matrix(0.866 -0.5 0.5 0.866 -130.1229 170.6059)" style="fill:#E0E0E0;" width="120.934" height="1.094"/>
					</g>
					<g>
						
							<rect x="185.663" y="323.435" transform="matrix(0.866 -0.5 0.5 0.866 -129.0199 166.4802)" style="fill:#E0E0E0;" width="120.933" height="1.094"/>
					</g>
					<g>
						
							<rect x="178.487" y="319.292" transform="matrix(0.8661 -0.4999 0.4999 0.8661 -127.8903 162.2913)" style="fill:#E0E0E0;" width="120.933" height="1.094"/>
					</g>
					<g>
						
							<rect x="171.311" y="315.149" transform="matrix(0.866 -0.5 0.5 0.866 -126.7926 158.1775)" style="fill:#E0E0E0;" width="120.934" height="1.094"/>
					</g>
					<g>
						
							<rect x="164.135" y="311.006" transform="matrix(0.866 -0.5 0.5 0.866 -125.6827 154.0348)" style="fill:#E0E0E0;" width="120.934" height="1.094"/>
					</g>
					<g>
						
							<rect x="156.96" y="306.863" transform="matrix(0.866 -0.5 0.5 0.866 -124.5798 149.9076)" style="fill:#E0E0E0;" width="120.933" height="1.094"/>
					</g>
					<g>
						
							<rect x="149.785" y="302.72" transform="matrix(0.866 -0.5 0.5 0.866 -123.4623 145.7497)" style="fill:#E0E0E0;" width="120.934" height="1.094"/>
					</g>
					<g>
						
							<rect x="142.609" y="298.578" transform="matrix(0.866 -0.5 0.5 0.866 -122.3523 141.6069)" style="fill:#E0E0E0;" width="120.934" height="1.094"/>
					</g>
					<g>
						
							<rect x="135.433" y="294.435" transform="matrix(0.866 -0.5 0.5 0.866 -121.2424 137.4642)" style="fill:#E0E0E0;" width="120.934" height="1.094"/>
					</g>
					<g>
						
							<rect x="128.258" y="290.292" transform="matrix(0.8661 -0.4999 0.4999 0.8661 -120.1198 133.297)" style="fill:#E0E0E0;" width="120.933" height="1.094"/>
					</g>
					<g>
						
							<rect x="121.082" y="286.149" transform="matrix(0.866 -0.5 0.5 0.866 -119.0221 129.1786)" style="fill:#E0E0E0;" width="120.934" height="1.094"/>
					</g>
				</g>
				<g>
					<path style="fill:#BA68C8;" d="M364.987,338.817c-0.093,0-0.186-0.024-0.272-0.074l-143.328-82.751
						c-0.262-0.15-0.352-0.485-0.2-0.747c0.15-0.262,0.485-0.351,0.747-0.2l143.328,82.751c0.262,0.15,0.352,0.485,0.2,0.747
						C365.361,338.718,365.177,338.817,364.987,338.817z"/>
				</g>
			</g>
		</g>
	</g>
</g>
<g id="Light_Bulb">
	<g id="Bulb">
		<g id="Bulb_00000124848480050494342020000016855552079150553518_">
			<g id="Socket_00000057862525676222904650000003728068149356450989_">
				<g>
					<path style="fill:#263238;" d="M295.687,228.592c-3.87-2.737-3.518-6.563,0.787-8.546c4.305-1.983,10.932-1.373,14.803,1.364
						c3.87,2.737,3.518,6.563-0.787,8.546C306.185,231.939,299.557,231.328,295.687,228.592z"/>
					<path style="fill:#263238;" d="M313.194,227.89l-1.698-0.156c-0.307-0.825-0.96-1.638-1.978-2.358
						c-3.148-2.225-8.537-2.722-12.038-1.109c-1.133,0.522-1.924,1.202-2.376,1.957l-1.696-0.156l1.663,3.264l0.006,0.001
						c0.357,0.66,0.94,1.303,1.763,1.885c3.147,2.225,8.537,2.722,12.038,1.109c0.915-0.422,1.605-0.947,2.077-1.531l0.006,0
						L313.194,227.89z"/>
				</g>
				<g>
					<path style="fill:#455A64;" d="M292.397,225.509c-5.712-4.061-5.176-9.717,1.197-12.634c6.373-2.916,16.17-1.988,21.883,2.073
						c5.712,4.061,5.176,9.717-1.197,12.634C307.907,230.499,298.109,229.57,292.397,225.509z"/>
					<path style="fill:#37474F;" d="M292.184,223.424c-5.924-4.212-5.369-10.079,1.242-13.104c6.61-3.024,16.771-2.062,22.696,2.151
						c5.924,4.212,5.369,10.079-1.242,13.103C308.27,228.599,298.109,227.636,292.184,223.424z"/>
					<path style="fill:#455A64;" d="M292.113,221.115c-6.074-4.319-5.505-10.334,1.273-13.435c6.778-3.101,17.196-2.114,23.27,2.205
						c6.075,4.319,5.505,10.334-1.273,13.435C308.607,226.421,298.188,225.434,292.113,221.115z"/>
					<path style="fill:#37474F;" d="M292.043,218.806c-6.224-4.425-5.641-10.589,1.304-13.766c6.945-3.178,17.62-2.166,23.845,2.259
						c6.224,4.425,5.64,10.589-1.304,13.766C308.942,224.243,298.267,223.231,292.043,218.806z"/>
					<path style="fill:#455A64;" d="M291.972,216.497c-6.374-4.532-5.776-10.844,1.336-14.098
						c7.112-3.254,18.044-2.218,24.419,2.314c6.374,4.532,5.776,10.844-1.336,14.098
						C309.279,222.064,298.346,221.029,291.972,216.497z"/>
					<path style="fill:#37474F;" d="M291.901,214.188c-6.524-4.639-5.912-11.099,1.367-14.43c7.279-3.331,18.469-2.27,24.993,2.368
						c6.524,4.638,5.912,11.099-1.367,14.43C309.615,219.886,298.425,218.826,291.901,214.188z"/>
				</g>
			</g>
			<path style="fill:#BA68C8;" d="M324.436,200.775c0.254-2.73-1.294-5.631-4.706-8.056c-6.828-4.854-18.538-5.964-26.155-2.479
				c-3.809,1.743-5.872,4.304-6.129,7.036c-0.1,1.059-0.496,5.226-0.596,6.288c-0.257,2.732,1.293,5.634,4.71,8.06
				c6.834,4.851,18.544,5.961,26.155,2.478c3.809-1.743,5.871-4.306,6.125-7.04C323.938,206.005,324.337,201.839,324.436,200.775z"
				/>
			<g>
				<path id="XMLID_00000109752247606077848220000010443930635451254718_" style="fill:#BA68C8;" d="M317.909,72.766
					c-30.719-2.911-57.98,19.633-60.891,50.351c-4.184,44.155,31.553,54.938,29.867,72.736c-0.269,2.835,1.336,5.848,4.878,8.366
					c7.084,5.037,19.234,6.188,27.138,2.571c3.952-1.808,6.094-4.466,6.363-7.301l0.001,0c1.686-17.797,38.812-21.676,42.996-65.832
					C371.171,102.939,348.628,75.677,317.909,72.766z"/>
				<path id="XMLID_00000042709812703179879550000000420726492002655913_" style="opacity:0.9;fill:#FFFFFF;" d="M317.909,72.766
					c-30.719-2.911-57.98,19.633-60.891,50.351c-4.184,44.155,31.553,54.938,29.867,72.736c-0.269,2.835,1.336,5.848,4.878,8.366
					c7.084,5.037,19.234,6.188,27.138,2.571c3.952-1.808,6.094-4.466,6.363-7.301l0.001,0c1.686-17.797,38.812-21.676,42.996-65.832
					C371.171,102.939,348.628,75.677,317.909,72.766z"/>
				<path style="fill:#BA68C8;" d="M294.096,203.245c-5.924-4.212-5.369-10.079,1.242-13.104c6.61-3.024,16.771-2.062,22.696,2.151
					c5.924,4.212,5.368,10.079-1.242,13.103C310.182,208.42,300.021,207.457,294.096,203.245z"/>
				<path style="opacity:0.55;fill:#FFFFFF;" d="M294.096,203.245c-5.924-4.212-5.369-10.079,1.242-13.104
					c6.61-3.024,16.771-2.062,22.696,2.151c5.924,4.212,5.368,10.079-1.242,13.103C310.182,208.42,300.021,207.457,294.096,203.245z
					"/>
				<path style="opacity:0.25;fill:#BA68C8;" d="M319.696,203.58c-0.779,0.674-1.748,1.291-2.903,1.818
					c-6.613,3.021-16.775,2.058-22.696-2.15c-1.036-0.735-1.871-1.523-2.51-2.331c0.78-0.68,1.748-1.291,2.903-1.818
					c6.613-3.028,16.775-2.065,22.695,2.15C318.221,201.984,319.064,202.766,319.696,203.58z"/>
				<path style="fill:#BA68C8;" d="M319.696,203.58c-0.779,0.674-1.748,1.291-2.903,1.818c-6.613,3.021-16.775,2.058-22.696-2.15
					c-1.036-0.735-1.871-1.523-2.51-2.331c0.78-0.68,1.748-1.291,2.903-1.818c6.613-3.028,16.775-2.065,22.695,2.15
					C318.221,201.984,319.064,202.766,319.696,203.58z"/>
				<path style="opacity:0.35;fill:#FFFFFF;" d="M319.696,203.58c-0.779,0.674-1.748,1.291-2.903,1.818
					c-6.613,3.021-16.775,2.058-22.696-2.15c-1.036-0.735-1.871-1.523-2.51-2.331c0.78-0.68,1.748-1.291,2.903-1.818
					c6.613-3.028,16.775-2.065,22.695,2.15C318.221,201.984,319.064,202.766,319.696,203.58z"/>
				<path style="opacity:0.35;fill:#FFFFFF;" d="M358.861,106.161c-2.959-5.606-8.001-10.437-14.779-8.26
					c-0.699,0.225-1.388,0.546-2.06,0.977c-2.377,1.524-3.565,4.505-3.422,7.324c0.278,5.455,5.139,9.299,7.744,13.767
					c2.848,4.888,4.838,10.279,5.813,15.852c0.291,1.663,0.612,4.405,1.307,5.943c1.092,2.417,3.802,3.036,5.361,2.388
					c2.269-0.945,3.643-3.544,4.147-5.632C365.969,126.103,364.288,116.445,358.861,106.161z M356.006,147.536
					c-2.088-0.408-4.064,1.078-4.793,2.734c-0.723,1.643-0.61,3.423,0.109,5.037c0.784,1.761,3.118,2.422,4.776,1.575
					c1.706-0.872,2.946-2.647,3.099-4.566C359.361,150.275,358.247,147.973,356.006,147.536z"/>
			</g>
			<g>
				<path style="fill:#455A64;" d="M312.032,203.933l-0.645-0.061c1.876-19.796,4.204-32.091,7.786-41.113
					c1.043-2.625,2.183-4.84,3.369-6.688c-4.383-1.822-8.934-5.303-11.728-8.502c-3.345,2.617-8.469,5.182-13.115,6.148
					c0.818,2.037,1.521,4.427,2.053,7.202c1.824,9.534,1.802,22.048-0.074,41.843l-0.644-0.061
					c1.87-19.732,1.894-32.19,0.082-41.661c-0.533-2.786-1.25-5.173-2.08-7.196c-0.642,0.114-1.274,0.194-1.887,0.238
					c-6.567,0.467-10.161-1.756-11.333-3.992c-0.818-1.562-0.61-3.3,0.57-4.769c1.047-1.303,2.723-1.782,4.585-1.319
					c2.768,0.689,6.065,3.462,8.476,9.108c4.581-0.919,9.66-3.45,12.953-6.03c-0.685-0.83-1.242-1.634-1.636-2.377
					c-2.596-4.889-2.039-8.851-0.652-10.93c0.984-1.474,2.516-2.227,4.206-2.067c1.689,0.16,3.053,1.188,3.742,2.82
					c0.972,2.301,0.775,6.298-2.693,10.613c-0.527,0.656-1.225,1.341-2.053,2.027c2.749,3.152,7.262,6.591,11.59,8.355
					c3.429-5.093,7.188-7.197,10.036-7.354c1.921-0.105,3.472,0.68,4.255,2.156c0.883,1.664,0.761,3.411-0.336,4.791
					c-1.571,1.976-5.516,3.485-11.881,1.793c-0.594-0.158-1.199-0.356-1.809-0.588c-1.195,1.831-2.347,4.041-3.394,6.677
					C316.218,171.96,313.902,184.202,312.032,203.933z M323.539,155.77c0.542,0.2,1.078,0.373,1.606,0.513
					c6.067,1.612,9.764,0.246,11.208-1.57c0.943-1.187,1.039-2.638,0.271-4.085c-0.659-1.244-1.992-1.905-3.648-1.813
					C330.428,148.955,326.847,150.947,323.539,155.77z M288.053,144.499c-1.296-0.123-2.422,0.307-3.162,1.228
					c-1.027,1.277-1.204,2.72-0.501,4.063c1.075,2.054,4.459,4.091,10.714,3.647c0.545-0.039,1.105-0.108,1.674-0.202
					c-2.344-5.358-5.487-7.987-7.963-8.603C288.556,144.566,288.301,144.522,288.053,144.499z M312.257,132.352
					c-1.466-0.139-2.746,0.494-3.606,1.782c-1.613,2.416-1.343,6.446,0.686,10.267c0.378,0.712,0.91,1.482,1.563,2.277
					c0.791-0.659,1.459-1.315,1.963-1.943c2.711-3.372,3.732-7.279,2.602-9.955C314.861,133.354,313.722,132.491,312.257,132.352z"
					/>
			</g>
		</g>
		<g>
			<g>
				<path style="fill:#F0F0F0;" d="M317.579,60.317c-0.927-0.065-1.626-0.868-1.561-1.796l1.167-16.68
					c0.065-0.927,0.868-1.626,1.796-1.561c0.927,0.065,1.626,0.868,1.561,1.796l-1.167,16.68
					C319.31,59.683,318.507,60.382,317.579,60.317z"/>
			</g>
			<g>
				<path style="fill:#F0F0F0;" d="M352.177,72.355c-0.286-0.02-0.569-0.112-0.822-0.283c-0.77-0.52-0.974-1.566-0.454-2.336
					l9.35-13.861c0.521-0.77,1.569-0.972,2.336-0.454c0.77,0.521,0.974,1.566,0.454,2.336l-9.35,13.861
					C353.341,72.134,352.756,72.396,352.177,72.355z"/>
			</g>
			<g>
				<path style="fill:#F0F0F0;" d="M376.121,100.081c-0.579-0.041-1.122-0.381-1.396-0.941c-0.407-0.835-0.06-1.842,0.775-2.25
					l15.029-7.329c0.835-0.406,1.841-0.06,2.25,0.775c0.407,0.835,0.06,1.842-0.775,2.25l-15.029,7.329
					C376.7,100.049,376.407,100.101,376.121,100.081z"/>
			</g>
			<g>
				<path style="fill:#F0F0F0;" d="M399.673,137.229l-16.68-1.167c-0.927-0.065-1.626-0.868-1.561-1.796
					c0.065-0.927,0.868-1.626,1.796-1.561l16.68,1.167c0.927,0.065,1.626,0.868,1.561,1.796
					C401.404,136.596,400.6,137.294,399.673,137.229z"/>
			</g>
			<g>
				<path style="fill:#F0F0F0;" d="M384.815,180.009c-0.286-0.02-0.569-0.112-0.822-0.283l-13.861-9.35
					c-0.77-0.52-0.974-1.566-0.454-2.336c0.522-0.77,1.569-0.972,2.336-0.454l13.861,9.35c0.77,0.52,0.973,1.566,0.454,2.336
					C385.979,179.789,385.394,180.05,384.815,180.009z"/>
			</g>
			<g>
				<path style="fill:#F0F0F0;" d="M233.679,169.043c-0.579-0.04-1.122-0.381-1.396-0.941c-0.407-0.835-0.06-1.842,0.775-2.25
					l15.029-7.329c0.834-0.406,1.842-0.06,2.25,0.775c0.407,0.835,0.06,1.842-0.775,2.25l-15.029,7.33
					C234.258,169.011,233.965,169.063,233.679,169.043z"/>
			</g>
			<g>
				<path style="fill:#F0F0F0;" d="M241.834,125.731l-16.68-1.167c-0.927-0.065-1.626-0.868-1.561-1.796
					c0.065-0.927,0.868-1.626,1.796-1.561l16.679,1.167c0.927,0.065,1.626,0.868,1.561,1.796
					C243.564,125.097,242.761,125.796,241.834,125.731z"/>
			</g>
			<g>
				<path style="fill:#F0F0F0;" d="M253.871,91.132c-0.286-0.02-0.569-0.112-0.822-0.283l-13.861-9.35
					c-0.77-0.52-0.974-1.566-0.454-2.336c0.521-0.77,1.569-0.972,2.336-0.454l13.861,9.35c0.77,0.52,0.973,1.566,0.454,2.336
					C255.036,90.911,254.45,91.173,253.871,91.132z"/>
			</g>
			<g>
				<path style="fill:#F0F0F0;" d="M281.599,67.19c-0.579-0.04-1.122-0.381-1.396-0.941l-7.33-15.029
					c-0.407-0.835-0.06-1.842,0.775-2.25c0.835-0.405,1.842-0.06,2.25,0.775l7.329,15.029c0.407,0.835,0.06,1.842-0.775,2.25
					C282.177,67.159,281.884,67.21,281.599,67.19z"/>
			</g>
		</g>
	</g>
</g>
<g id="Character">
	<g id="Character_00000086649833606523997890000009087692209539424412_">
		<g id="Bottom_00000061444672104785561830000013375113511954912957_">
			<g>
				<g>
					<path style="fill:#FFBDA7;" d="M106.653,369.556c0.73-3.105-2.356-5.069-3.812-6.854c-2.251-2.763-2.949-9.192-2.924-12.475
						c0.031-4.095-0.462-7.018,2.088-10.72c3.018-4.383,7.219-9.516,21.278-22.078l-17.318-17.396
						c-3.625,5.682-12.763,25.588-12.763,25.588l-0.604,1.233c-1.719,2.06-2.83,3.458-5.459,5.223
						c-0.013,0.009-0.948,0.483-0.961,0.492c-1.651,1.126-5.849,2.323-5.777,6.247c0.072,3.925,1.604,4.895,3.378,8.109
						c1.131,2.049,1.957,3.088,2.04,7.008c0.067,3.158-0.067,6.68-0.1,9.507c-0.028,2.379,2.171,5.835,6.749,7.383
						C99.137,373.076,105.934,372.61,106.653,369.556z"/>
					<g>
						<g id="XMLID_00000059274136820407817330000011833884732077400221_">
							<path style="fill:#263238;" d="M78.027,338.926c-1.156,1.434-4.196,6.292-5.003,8.61l4.6,6.442l3.86-6.5
								C81.483,347.477,78.69,343.415,78.027,338.926z"/>
							<path d="M77.623,353.977l6.314-0.433c0,0,0.545-2.145-0.623-3.896c-1.168-1.751-1.831-2.17-1.831-2.17L77.623,353.977z"/>
							<path style="fill:#263238;" d="M79.294,337.472c0,0-0.924,0.677-1.22,1.313c-0.297,0.641,0.044,4.679,1.356,6.636
								c1.313,1.957,3.451,4.032,3.979,6.818c0.528,2.786-0.58,9.213,0.531,13.104c1.111,3.892,4.867,8.344,13.057,9.392
								c5.854,0.749,8.063-0.358,10.02-1.579c0.708-2.525,0.639-3.184-2.56-5.317C101.258,365.708,79.294,337.472,79.294,337.472z"
								/>
							<path id="XMLID_00000005240735111905738130000000678994440474469510_" style="fill:#37474F;" d="M90.198,327.19
								c-2.625,3.122-3.566,4.323-5.982,5.724c-2.923,1.695-3.529,2.378-4.922,4.558c-0.59,3.374,0.09,4.77,3.19,9.084
								c2.121,2.952,2.818,4.893,2.758,8.951c-0.072,4.911-1.745,9.39,4.239,14.416c4.661,3.914,14.855,4.174,17.623,1.454
								c2.367-6.702-3.937-6.351-5.366-13.452c-0.792-3.934-0.857-9.871,0.376-13.8c0.425-1.357,1.346-3.928,2.065-5.149
								c0.98-1.665,1.853-2.882,1.063-3.759l-1.493,1.828c-1.482,0.326-5.071-0.45-7.434-2.351
								c-5.704-4.588-3.717-7.841-3.717-7.841l0.604-1.233C92.623,324.927,91.687,325.419,90.198,327.19z"/>
						</g>
					</g>
				</g>
				<path style="fill:#263238;" d="M153.579,170.729c1.439,9.678,6.104,21.819,8.695,44.736c2.43,21.492,3.508,32.701,1.97,43.388
					c-0.548,3.808-2.51,8.269-6.254,13.905c-11.728,17.655-34.811,45.439-34.811,45.439s-5.235-0.086-11.575-5.135
					c-6.126-4.879-6.395-12.1-6.395-12.1s0.616-4.031,10.295-20.299c9.679-16.268,10.915-33.87,10.915-33.87l-6.307-69.019
					C135.137,179.107,146.574,176.357,153.579,170.729z"/>
				<path d="M111.604,313.061c-6.126-4.879-6.395-12.1-6.395-12.1s0.616-4.031,10.295-20.299
					c9.679-16.268,10.914-33.87,10.914-33.87l-4.828-52.837c11.758-1.815,28.164-1.667,28.164-1.667
					c0.31,7.56-1.365,16.924-12.257,22.558c0,0,2.009,37.165,2.263,48.038c0.194,8.295-2.223,29.413-3.381,38.969
					c-7.326,9.271-13.2,16.342-13.2,16.342S117.944,318.11,111.604,313.061z"/>
			</g>
			<g>
				<path style="fill:#FFBDA7;" d="M131.519,352.815l0.072-1.67l1.64-33.931l-23.878,5.96l5.307,27.204l0.18,1.417
					c0,0,0.254,6.913,10.92,7.308C131.223,359.306,131.519,352.815,131.519,352.815z"/>
				<g>
					<polygon points="118.617,383.758 126.905,380.687 127.174,372.815 118.739,375.994 					"/>
					<path style="fill:#263238;" d="M110.556,366.103c-0.34,2.896,2.04,14.01,2.04,14.01l6.021,3.645l0.122-7.764
						c0,0,1.675,1.427,3.441,5.533c1.67,3.883,3.964,7.612,7.901,9.574c3.937,1.963,10.745,2.767,16.526,2.012
						c4.115-0.537,6.647-2.295,7.331-3.339c0.317-0.484,0.243-1.641,0.243-1.641L110.556,366.103z"/>
					<path style="fill:#37474F;" d="M131.591,351.146c1.137-0.089,1.049,0.996,2.447,7.505c1.046,4.867,3.328,13.258,12.184,18.789
						c3.647,2.278,8.696,3.721,7.958,10.694c-2.529,3.386-11.349,4.278-16.633,3.347c-10.669-1.881-12.258-6.094-14.923-12.367
						c-2.137-5.031-4.018-5.567-6.868-7.582c-1.883-1.331-4.45-3.252-5.2-5.429c-0.134-4.781,1.67-7.901,2.316-10.315
						c0.607-2.267,0.259-5.058,1.787-5.409l0.18,1.417c0,0,1.428,3.831,8.851,3.976c7.423,0.145,7.828-2.955,7.828-2.955
						L131.591,351.146z"/>
				</g>
			</g>
			<g>
				<path style="fill:#263238;" d="M153.579,170.729c0,0,1.91,12.499-2.163,23.894c-3.538,9.898-10.331,15.475-17.483,17.798
					c0,0,2.373,44.452,3.011,50.638c0.638,6.186-0.848,28.607-2.191,43.367c-1.344,14.759-1.747,19.811-1.747,19.811
					s-3.152,3.326-11.983,3.496c-8.83,0.17-11.631-3.475-11.631-3.475s-5.58-17.056-5.815-30.444
					c-0.135-7.675,1.551-11.486,0.089-19.09c-1.462-7.604-12.246-41.47-14.07-57.524c-1.824-16.055,0.91-30.162,12.337-46.594
					C114.223,180.621,142.392,178.605,153.579,170.729z"/>
				<path d="M106.968,175.083c-6.191,8.54-15.109,26.153-8.78,51.38c1.8,7.173,3.595,14.096,5.332,20.791
					c4.066,15.679,7.278,28.063,7.712,32.79c0.24,2.615-0.053,5.099-0.391,7.974c-0.531,4.507-1.192,10.117-0.002,18.755
					c1.111,8.075,2.719,16.561,3.882,22.305c-0.373-0.096-0.725-0.197-1.053-0.305c-1.157-5.744-2.71-14.004-3.793-21.872
					c-1.204-8.753-0.536-14.426,0.001-18.985c0.332-2.824,0.62-5.265,0.389-7.783c-0.427-4.654-3.631-17.006-7.686-32.644
					c-1.737-6.697-3.534-13.622-5.334-20.798c-6.375-25.41,2.518-43.226,8.799-51.968
					C106.347,174.844,106.655,174.966,106.968,175.083z"/>
			</g>
		</g>
		<g id="Top_00000047035556053529049600000001075857242144386744_">
			<g>
				<g>
					<path style="fill:#FFBDA7;" d="M193.078,161.79c3.64,2.258,6.554,2.012,9.443,2.683c3.666,0.851,6.559,2.652,11.533,4.948
						c0.852,0.393,1.699,0.797,2.546,1.203c0.411,0.197,0.816,0.411,1.245,0.552c0.408,0.134,0.748,0.262,0.731,0.805
						c-0.012,0.383-0.238,0.729-0.507,1.003c-0.89,0.909-2.249,1.215-3.52,1.151c-1.271-0.063-2.5-0.447-3.742-0.726
						c-0.952-0.214-0.501,0.803-0.217,1.251c1.393,2.201,8.384,3.914,10.672,5.059c1.037,0.519,2.41,0.513,2.608,1.884
						c0.066,0.458,0.046,0.934,0.2,1.369c0.163,0.46,0.505,0.831,0.782,1.233c0.413,0.599,0.695,1.32,0.627,2.045
						c-0.068,0.724-0.548,1.435-1.25,1.627c-0.555,0.152-1.181-0.02-1.702,0.225c-0.244,0.114-0.439,0.31-0.663,0.459
						c-1.002,0.669-2.327,0.32-3.531,0.273c-1.041-0.04-2.015,0.294-3.042,0.306c-1.102,0.013-2.157,0.043-3.255-0.122
						c-2.175-0.328-5.316-1.158-7.356-1.958c-2.975-1.167-6.048-3.551-8.311-5.836c-1.317-1.33-2.396-2.916-6.887-4.866
						c-4.492-1.95-21.812-8.651-27.924-13.052c-2.216-1.596-3.327-3.313-10.397-10.584c-10.5-10.798-13.789-15.274-13.789-15.274
						l-7.578-25.178c8.726,0.269,12.516-0.463,19.077,6.62c9.185,9.914,22.98,26.971,22.98,26.971S189.991,159.876,193.078,161.79z"
						/>
				</g>
				<path style="fill:#F0997A;" d="M207.872,173.993c-3.362,2.403-8.688,1.078-10.9-0.219c0,0,2.915,2.723,5.741,2.722
					C205.81,176.495,206.959,175.417,207.872,173.993z"/>
			</g>
			<g id="XMLID_298_">
				<g id="XMLID_300_">
					<path id="XMLID_00000149372887862100090610000006287793191995555716_" style="fill:#FFA8A7;" d="M237.543,310.657
						l31.993,33.047c0.93,0.961,2.549,0.194,2.396-1.134l-5.317-45.956L237.543,310.657z"/>
					<path id="XMLID_00000087386981904568964110000005633879974038266294_" style="fill:#455A64;" d="M271.931,342.57
						c0.154,1.328-1.465,2.095-2.396,1.134l-6.246-6.452l0,0c2.899,0.155,5.642-1.324,7.106-3.831l0.398-0.682L271.931,342.57z"/>
					<path id="XMLID_763_" style="fill:#455A64;" d="M175.789,104.531l1.818,3.849l2.214,4.636l86.796,183.592
						c-1.43,4.981-5.164,8.922-9.586,11.568c-6.721,4.053-15.055,5.14-19.469,2.469l-86.744-183.494l-4.198-8.878
						C149.657,123.872,178.758,110.187,175.789,104.531z"/>
					<path id="XMLID_00000075163082263289854270000002226119013529922693_" style="fill:#EBEBEB;" d="M182.766,119.161l4.05,8.601
						c1.257,2.455-3.301,6.56-9.17,10.006c-7.784,4.597-18.411,6.893-20.083,3.643l-2.997-6.335l-1.032-2.284
						c1.671,3.249,12.303,0.959,20.087-3.637c5.62-3.309,10.046-7.251,9.248-9.715l-0.011-0.026
						C182.851,119.325,182.817,119.247,182.766,119.161z"/>
					<path id="XMLID_756_" style="fill:#BA68C8;" d="M183.757,121.316c2.93,5.694-26.305,19.333-29.235,13.638l-4.082-8.597
						c2.93,5.694,32.161-7.943,29.231-13.637L183.757,121.316z"/>
					<path id="XMLID_755_" style="fill:#EBEBEB;" d="M175.789,104.531l4.032,8.486c2.918,5.57-25.181,18.968-29.003,14.136
						c-0.078-0.075-0.141-0.187-0.203-0.299l-3.994-8.579C149.657,123.872,178.758,110.187,175.789,104.531z"/>
					<path id="XMLID_754_" style="opacity:0.1;" d="M150.818,127.153l-4.198-8.878c1.372,2.529,8.242,1.667,14.964-1.198
						l91.307,193.21l16.645,33.417l-31.993-33.047l0.02-0.01c0,0-0.001,0-0.001,0L150.818,127.153z"/>
					<path style="fill:#F28F8F;" d="M129.23,81.52c-0.055-0.094-0.123-0.179-0.169-0.278c-1.755-3.738,3.358-9.837,11.42-13.623
						c8.051-3.78,15.996-3.823,17.767-0.102c0.003,0.004,0.007,0.006,0.009,0.01l17.536,37.005c1.266,2.422-3.223,6.509-9.026,9.961
						c-7.768,4.621-18.413,6.988-20.144,3.779c-0.022-0.001-0.022-0.001-0.034-0.027l-17.124-36.15
						c-0.078-0.167-0.143-0.328-0.213-0.499C129.243,81.57,129.239,81.545,129.23,81.52z"/>
					<path style="opacity:0.1;" d="M138.772,68.485l22.818,48.594c-6.677,2.783-13.599,3.726-14.966,1.193
						c-0.022-0.001-0.022-0.001-0.034-0.027l-17.124-36.15c-0.078-0.167-0.143-0.328-0.213-0.499
						c-0.009-0.025-0.013-0.051-0.022-0.076c-0.055-0.094-0.123-0.179-0.169-0.278C127.434,77.776,131.715,72.284,138.772,68.485z"
						/>
					<path style="fill:#FFA8A7;" d="M129.061,81.242c1.755,3.738,9.714,3.699,17.777-0.087c8.063-3.786,13.176-9.885,11.421-13.623
						c-1.755-3.738-9.714-3.699-17.777,0.087C132.419,71.404,127.306,77.504,129.061,81.242z"/>
				</g>
			</g>
			<g>
				<path style="fill:#BA68C8;" d="M90.213,151.266c0,0,4.709-2.271,5.987-12.51c0.58-4.646-1.027-10.706-2.999-17.702l13.369-5.818
					c0,0,4.417-1.22,14.174-3.006l9.051,0.039c0,0,16.298,6.881,22.92,15.567c3.617,4.744,7.361,14.851,1.003,22.535
					c0.495,6.881,0.587,20.903,0.587,20.903s-3.74,6.778-21.716,8.829c-25.78,2.942-32.965-6.452-32.965-6.452
					C99.119,166.27,92.93,158.359,90.213,151.266z"/>
				<path style="opacity:0.2;fill:#FFFFFF;" d="M90.213,151.266c0,0,4.709-2.271,5.987-12.51c0.58-4.646-1.027-10.706-2.999-17.702
					l13.369-5.818c0,0,4.417-1.22,14.174-3.006l9.051,0.039c0,0,16.298,6.881,22.92,15.567c3.617,4.744,7.361,14.851,1.003,22.535
					c0.495,6.881,0.587,20.903,0.587,20.903s-3.74,6.778-21.716,8.829c-25.78,2.942-32.965-6.452-32.965-6.452
					C99.119,166.27,92.93,158.359,90.213,151.266z"/>
				<path style="fill:#BA68C8;" d="M134.576,152.766c0,0-3.721,6.3-13.7,6.064c-9.978-0.236-12.946-7.317-12.946-7.317
					s0.77,9.545,12.693,9.784C132.364,161.533,134.576,152.766,134.576,152.766z"/>
			</g>
			<g id="Head_00000121990279939367831570000014056153413812207545_">
				<path style="fill:#263238;" d="M98.127,63.841c1.324-1.678,3.462-2.967,5.538-3.477c2.075-0.51,3.349-0.485,5.327-1.295
					c1.882-0.77,3.502-2.08,5.375-2.87c4.129-1.741,9.108-0.658,12.658,2.077c1.568,1.208,3.037,2.774,4.994,3.068
					c0.967,0.145,1.95-0.045,2.928-0.043c3.095,0.007,5.952,2.007,7.591,4.632c1.287,2.06,1.91,4.459,2.159,6.857
					c0.249,2.392-0.583,4.621-0.437,7.001c0.107,1.743,1.195,3.282,2.262,4.599c1.436,1.774,2.616,3.136,3.321,5.386
					c0.543,1.733,0.879,3.583,0.524,5.364c-0.355,1.781-1.507,3.481-3.213,4.103c0.643-1.689,0.367-3.696-0.708-5.149
					c0.398,1.599-0.051,3.325-0.927,4.721c-0.877,1.396-2.148,2.5-3.482,3.467c-3.016,2.186-6.654,3.791-10.428,3.795
					c-3.952,0.005-7.961-1.345-11.881-0.315c-1.088,0.286-2.118,0.752-3.168,1.154c-1.799,0.688-3.668,1.19-5.569,1.497
					c-1.824,0.295-3.672,0.162-5.473,0.42c-2.946,0.422-6.044-0.268-8.474-2.006c-3.064-2.191-5.235-6.625-5.124-10.39
					c-0.536,0.612-0.958,1.58-1.213,2.961c-1.74-2.078-2.394-5.018-1.699-7.637c0.548-2.065,1.871-3.924,2.028-6.055
					c0.136-1.843-0.623-3.628-0.824-5.465c-0.469-4.284,2.545-8.683,6.709-9.793C96.323,67.556,97.282,64.911,98.127,63.841z"/>
				<path style="fill:#FFBDA7;" d="M98.175,87.007c2.522-1.06,4.715-0.18,6.171,2.453c1.266,2.29,3.746,1.385,3.031-2.221
					c5.557-5.654-1.233-8.917,3.324-14.357c2.842-3.393,9.171-2.723,11.761-0.746c1.041-2.122,4.069-4.032,7.044-3.098
					c2.683,0.842,4.417,2.367,5.811,5.997c1.452,3.78,0.107,4.548,0.842,7.227c0.285,1.037,1.403,3.065,1.536,5.731
					c0.632,12.65-1.889,15.931-4.61,18.104c-1.871,1.494-4.295,2.331-8.46,2.512l0.386,5.512c0,0,5.405,5.992,6.302,14.747
					c-12.047-3.082-18.306-7.151-25.352-12.456l-1.203-18.342l0,0c-0.54,1.462-3.428,3.142-6.465,0.824
					C94.451,95.959,93.725,88.877,98.175,87.007z"/>
				<g>
					<path id="XMLID_00000033366248931052025410000018169781746201085853_" style="fill:#263238;" d="M133.985,80.769l-4.11-1.517
						c0.379-1.16,1.607-1.76,2.742-1.341C133.752,78.33,134.364,79.61,133.985,80.769z"/>
					<path id="XMLID_00000036234380584697914700000004317504883262550945_" style="fill:#263238;" d="M117.928,79.744l-3.77,2.23
						c-0.66-1.026-0.351-2.357,0.69-2.973C115.889,78.385,117.268,78.718,117.928,79.744z"/>
					<path id="XMLID_00000113336136476660679250000013530066258956756884_" style="fill:#B16668;" d="M120.164,94.814l6.128,1.899
						c-0.465,1.726-2.388,2.681-4.308,2.008C120.312,98.136,119.699,96.539,120.164,94.814z"/>
					<path style="fill:#F28F8F;" d="M123.746,98.884c-0.214-1.699-1.667-2.999-3.416-2.957c-0.106,0.002-0.206,0.027-0.31,0.039
						c0.022,1.249,0.674,2.304,1.963,2.755C122.588,98.933,123.187,98.968,123.746,98.884z"/>
					<polygon id="XMLID_00000139289176494760495880000002534774112474327736_" style="fill:#F0997A;" points="123.901,81.833 
						125.236,93.139 131.428,90.806 					"/>
					<circle style="fill:#263238;" cx="117.444" cy="85.232" r="1.835"/>
					<circle style="fill:#263238;" cx="131.701" cy="84.431" r="1.835"/>
				</g>
				<g id="XMLID_00000142141013328841479990000004630061490463078836_">
					<path id="XMLID_00000123440620339416128760000018410780815538728624_" style="fill:#F0997A;" d="M124.624,108.608
						c-4.07-0.109-10.97-0.108-14.459-4.557c0,0,0.521,2.698,4.728,4.675c2.957,1.39,9.848,1.793,9.848,1.793L124.624,108.608z"/>
				</g>
			</g>
			<g>
				<path style="fill:#FFBDA7;" d="M184.392,170.643c-0.357,0.697-1.21,0.958-1.507,1.655c-0.133,0.339-0.057,0.719-0.041,1.1
					c0.06,1.021-0.37,2.047-1.107,2.729c-0.242,0.228-0.504,0.405-0.667,0.663c-0.173,0.278-0.236,0.598-0.299,0.917
					c-0.344,1.407-1.256,2.628-2.336,3.597c-0.464,0.405-0.958,0.801-1.472,1.166c-1.299,0.937-2.757,1.703-4.242,2.188
					c-2.97,0.981-8.005,1.441-11.135,1.48c-3.951,0.041-7.671-0.966-13.934-0.638c-9.165,0.489-28.23,0.861-34.479,0.739
					c-6.259-0.132-8.944-0.638-12.777-8.437c-3.068-6.231-4.05-8.13-10.23-22.222c-8.117-18.581-8.099-29.432,3.032-34.522
					c5.963,1.769,10.101,9,13.145,16.731c3.542,8.926,11.749,28.398,11.749,28.398s28.243,2.92,33.155,2.688
					c4.613-0.224,8.822-2.203,13.117-3.7c1.274-0.448,2.5-0.985,3.755-1.443l1.88,3.999c-0.305,0.477-0.749,0.893-1.183,1.278
					c-0.555,0.485-1.875,1.492-0.972,2.23c0.803,0.658,2.376,0.354,3.781-0.083c0.913-0.281,1.746-0.613,2.278-0.788
					c2.207-0.708,4.366-1.597,6.66-1.974c1.092-0.189,2.413-0.246,3.346,0.453C184.585,169.335,184.749,169.907,184.392,170.643z"/>
				<path style="fill:#F0997A;" d="M170,167.731c-0.316,0.692-0.887,1.236-1.387,1.777c-0.51,0.493-0.959,1.205-0.568,1.383
					c1.026,0.663,2.691,0.012,3.85-0.355c2.826-0.904,5.67-1.998,8.669-2.14c-2.846,0.918-5.535,2.16-8.372,3.094
					c-1.079,0.356-2.283,0.698-3.471,0.541c-0.966-0.076-2.042-1.058-1.295-2.048C168.149,169.027,169.249,168.638,170,167.731
					L170,167.731z"/>
				<path style="fill:#F0997A;" d="M118.093,166.187c8.353,0.445,17.087,1.249,25.42,1.828c2.113,0.161,4.232,0.336,6.335,0.405
					c4.219,0.183,8.271-1.304,12.223-2.672l6.049-2.017c-5.897,2.353-11.769,5.683-18.292,5.599
					C139.193,168.926,128.622,167.676,118.093,166.187L118.093,166.187z"/>
			</g>
		</g>
	</g>
</g>
<g id="Shapes">
	<g id="Abstract_Forms">
		<g>
			<path style="fill:#BA68C8;" d="M261.687,346.33c-8.364-4.556-18.384-5.426-27.784-3.889c-9.4,1.537-18.283,5.336-26.755,9.689
				c-3.279,1.685-6.982,3.508-10.49,2.374c-3.609-1.167-5.645-5.318-5.322-9.098c0.322-3.779,2.531-7.157,5.153-9.898
				c9.61-10.045,25.412-13.725,38.608-9.353C246.74,330.013,255.313,337.634,261.687,346.33"/>
			<path style="opacity:0.6;fill:#FFFFFF;" d="M261.687,346.33c-8.364-4.556-18.384-5.426-27.784-3.889
				c-9.4,1.537-18.283,5.336-26.755,9.689c-3.279,1.685-6.982,3.508-10.49,2.374c-3.609-1.167-5.645-5.318-5.322-9.098
				c0.322-3.779,2.531-7.157,5.153-9.898c9.61-10.045,25.412-13.725,38.608-9.353C246.74,330.013,255.313,337.634,261.687,346.33"/>
		</g>
		<g>
			<path style="fill:#BA68C8;" d="M207.055,318.38c1.813-0.352,3.67-0.503,5.515-0.393c0.84,0.05,1.645,0.23,2.478,0.348
				c0.895,0.127,1.78,0.318,2.647,0.573c-0.234-0.429-0.773-0.965-1.122-1.307c-1.48-1.449-2.568-2.227-4.14-3.077
				c-1.619-0.875-3.301-1.635-5.027-2.275c-3.453-1.28-7.085-2.081-10.758-2.365c-3.651-0.282-7.344-0.049-10.923,0.732
				c-4.736,1.034-9.588,3.247-11.968,7.469c-1.111,1.97-1.574,4.484-0.515,6.483c0.821,1.549,2.448,2.559,4.156,2.951
				c1.708,0.392,3.497,0.231,5.218-0.102c4.275-0.827,8.273-2.68,12.221-4.517C198.784,321.065,202.78,319.211,207.055,318.38z"/>
			<path style="opacity:0.35;fill:#FFFFFF;" d="M207.055,318.38c1.813-0.352,3.67-0.503,5.515-0.393
				c0.84,0.05,1.645,0.23,2.478,0.348c0.895,0.127,1.78,0.318,2.647,0.573c-0.234-0.429-0.773-0.965-1.122-1.307
				c-1.48-1.449-2.568-2.227-4.14-3.077c-1.619-0.875-3.301-1.635-5.027-2.275c-3.453-1.28-7.085-2.081-10.758-2.365
				c-3.651-0.282-7.344-0.049-10.923,0.732c-4.736,1.034-9.588,3.247-11.968,7.469c-1.111,1.97-1.574,4.484-0.515,6.483
				c0.821,1.549,2.448,2.559,4.156,2.951c1.708,0.392,3.497,0.231,5.218-0.102c4.275-0.827,8.273-2.68,12.221-4.517
				C198.784,321.065,202.78,319.211,207.055,318.38z"/>
		</g>
		<g>
			<path style="fill:#BA68C8;" d="M204.115,301.248c7.438,6.91,15.903,11.115,25.223,14.706
				c-5.347-5.682-8.799-12.623-11.515-19.862c-2.734-7.289-3.547-15.045-4.879-22.636c-0.755-4.303-2.157-8.644-5.073-11.896
				c-2.915-3.253-7.608-5.185-11.777-3.879c-3.652,1.144-6.278,4.565-7.257,8.265c-0.979,3.7-0.521,7.64,0.423,11.348
				C191.635,286.613,197.072,294.704,204.115,301.248z"/>
		</g>
		<g style="opacity:0.2;">
			<path style="fill:#FFFFFF;" d="M204.115,301.248c7.438,6.91,15.903,11.115,25.223,14.706
				c-5.347-5.682-8.799-12.623-11.515-19.862c-2.734-7.289-3.547-15.045-4.879-22.636c-0.755-4.303-2.157-8.644-5.073-11.896
				c-2.915-3.253-7.608-5.185-11.777-3.879c-3.652,1.144-6.278,4.565-7.257,8.265c-0.979,3.7-0.521,7.64,0.423,11.348
				C191.635,286.613,197.072,294.704,204.115,301.248z"/>
		</g>
		<g>
			<path style="fill:#BA68C8;" d="M195.447,255.138c-3.973,1.496-7.165,4.925-8.372,8.995c-0.215,0.726-0.521,1.615-1.271,1.724
				c-0.854,0.124-1.406-0.896-1.521-1.752C183.38,257.399,190.572,255.242,195.447,255.138z"/>
		</g>
		<g>
			<path style="fill:#BA68C8;" d="M298.232,313.086c-8.924,6.517-17.649,15.563-20.728,26.496
				c-3.098-17.752,2.541-37.376,12.424-52.136c9.524-14.224,27.205-27.389,45.17-20.071c4.584,1.867,8.442,6.038,8.892,10.967
				c0.397,4.353-1.871,8.612-5.033,11.63c-3.162,3.018-7.148,5-11.086,6.897C317.708,301.762,307.341,306.434,298.232,313.086z"/>
			<path style="opacity:0.35;fill:#FFFFFF;" d="M298.232,313.086c-8.924,6.517-17.649,15.563-20.728,26.496
				c-3.098-17.752,2.541-37.376,12.424-52.136c9.524-14.224,27.205-27.389,45.17-20.071c4.584,1.867,8.442,6.038,8.892,10.967
				c0.397,4.353-1.871,8.612-5.033,11.63c-3.162,3.018-7.148,5-11.086,6.897C317.708,301.762,307.341,306.434,298.232,313.086z"/>
		</g>
		<g>
			<path style="fill:#BA68C8;" d="M264.181,247.837c0.453,7.523,4.062,16.511,6.05,22.34c2.987,8.757,5.8,18.181,3.413,27.12
				c6.312-8.149,12.31-17.454,15.101-27.459c2.933-10.511,2.606-22.484-5.418-30.808c-5.226-5.42-16.088-5.816-18.584,2.596
				C264.192,243.484,264.046,245.596,264.181,247.837z"/>
			<path style="opacity:0.6;fill:#FFFFFF;" d="M264.181,247.837c0.453,7.523,4.062,16.511,6.05,22.34
				c2.987,8.757,5.8,18.181,3.413,27.12c6.312-8.149,12.31-17.454,15.101-27.459c2.933-10.511,2.606-22.484-5.418-30.808
				c-5.226-5.42-16.088-5.816-18.584,2.596C264.192,243.484,264.046,245.596,264.181,247.837z"/>
		</g>
		<path style="fill:#BA68C8;" d="M330.198,256.815c-2.674-0.485-5.452-0.298-7.962,0.748c-2.844,1.185-5.27,3.349-6.771,6.04
			c2.693-1.547,6.912-2.874,13.927-1.878c6.72,0.954,10.72,4.126,12.134,5.852c-0.118-3.35-2.788-6.894-5.66-8.622
			C334.139,257.917,332.198,257.178,330.198,256.815z"/>
	</g>
</g>
<g id="Text_icon">
	<g id="Speech_Bubble_00000181050903827743498970000004166392793472437410_">
		<g id="Speech_Bubble_00000049219714973625284510000009416108167402111123_">
			<g>
				<path style="fill:#37474F;" d="M382.312,277.008l1.653-5.897c-0.723-3.383,13.079,4.585,13.802,7.968l-4.448,11.97
					c-0.17,0.39-0.435,0.68-0.746,0.871c-0.977,0.601-7.567,4.339-7.88,4.53c-0.985,0.602-2.433,0.225-2.843-1.056l-5.761-19.757
					C375.734,273.97,378.913,275.065,382.312,277.008z"/>
			</g>
			<g id="XMLID_00000074420479117377207590000008176393305257664150_">
				<path id="XMLID_00000088094855007050757790000015335124883385852594_" style="fill:#37474F;" d="M366.549,194.837l52.47,30.268
					c0.979,0.565,1.774,1.941,1.774,3.072v62.172c0,1.131-0.798,2.499-1.783,3.055l-6.239,3.544
					c-0.985,0.556-2.578,0.548-3.557-0.017l-52.47-30.268c-0.979-0.566-1.773-1.941-1.773-3.072v-62.171
					c0-1.131,0.798-2.499,1.784-3.055l6.24-3.545C363.977,194.264,365.57,194.271,366.549,194.837z"/>
				<g>
					<path style="fill:#FAFAFA;" d="M356.742,200.395l52.47,30.268c0.979,0.565,1.773,1.941,1.773,3.072v62.172
						c0,1.131-0.794,1.59-1.773,1.024l-20.079-11.583l-3.689,10.23c-0.709,1.625-3.052,1.506-3.593-0.182l-4.902-17.077
						l-20.207-11.656c-0.979-0.565-1.773-1.941-1.773-3.072v-62.171C354.969,200.288,355.763,199.829,356.742,200.395z"/>
					<path style="fill:#37474F;" d="M355.95,201.016c0.042,0,0.162,0.012,0.36,0.127l52.47,30.268
						c0.715,0.413,1.342,1.499,1.342,2.324v62.172c0,0.272-0.071,0.386-0.118,0.403c-0.042,0-0.162-0.012-0.361-0.127
						l-20.079-11.583l-0.894-0.516l-0.35,0.971l-3.678,10.2c-0.261,0.569-0.797,0.613-0.957,0.613c-0.375,0-0.839-0.193-1.005-0.711
						l-4.902-17.077l-0.096-0.335l-0.302-0.174l-20.206-11.656c-0.715-0.413-1.342-1.499-1.342-2.324v-62.171
						c0-0.272,0.071-0.386,0.086-0.399C355.921,201.019,355.931,201.016,355.95,201.016 M355.95,200.153
						c-0.582,0-0.981,0.464-0.981,1.266v62.171c0,1.131,0.794,2.507,1.773,3.072l20.207,11.656l4.902,17.077
						c0.283,0.883,1.058,1.336,1.835,1.336c0.709,0,1.42-0.379,1.758-1.154l3.689-10.23l20.079,11.583
						c0.285,0.164,0.554,0.242,0.792,0.242c0.582,0,0.981-0.464,0.981-1.266v-62.172c0-1.131-0.794-2.507-1.773-3.072l-52.47-30.268
						C356.457,200.231,356.189,200.153,355.95,200.153L355.95,200.153z"/>
				</g>
				<path id="XMLID_00000052101518657905617250000006905583887445345432_" style="fill:#455A64;" d="M354.993,201.097
					c0.139-0.893,0.868-1.213,1.753-0.705l52.463,30.27c0.491,0.287,0.934,0.77,1.254,1.327l9.775-5.624
					c-0.32-0.533-0.746-0.991-1.221-1.262l-52.471-30.27c-0.975-0.565-2.564-0.574-3.555-0.017l-6.236,3.543
					C355.861,198.869,355.116,200.04,354.993,201.097z"/>
			</g>
		</g>
		<g id="XMLID_00000065771039049971360830000011597422131845443775_">
			<path style="fill:#455A64;" d="M367.82,220.185v15.164l1.377,0.769c0,0,0-2.204,0-4.781c0-2.577,2.098-3.454,4.687-1.96
				l6.434,3.714v27.347c0,2.989-1.828,4.356-4.084,3.054c-2.256-1.302-4.036-2.33-4.036-2.33v1.643l21.887,12.637v-1.643
				l-4.036-2.331c-2.256-1.302-4.084-4.78-4.084-7.769v-27.347l6.433,3.714c2.588,1.494,4.687,4.795,4.687,7.371v4.781l1.377,0.822
				v-15.164L367.82,220.185z"/>
		</g>
	</g>
</g>
</svg>
